<svg xmlns="http://www.w3.org/2000/svg" viewBox="0 0 128.8 127.4"><path d="M87.7,48.1c-2.5-2-5.7-3.4-14.2-3.4H70.4V38.3H87.1v-10H42.7v10H58.4V88a9.6,9.6,0,0,1-.4,3.7,2.8,2.8,0,0,1-3,2.1c-2.5,0-3.2-2-3.5-3.9s-.1-1.3-.1-1.3H38.9a22.6,22.6,0,0,0,.3,3.5c2,12,14.2,12,15.2,12a17.6,17.6,0,0,0,9.3-2.7,13.7,13.7,0,0,0,5.1-5.3,14.8,14.8,0,0,0,1-3.6,46.2,46.2,0,0,0,.6-7.4V75.8h4.4c7.1,0,10.2-1.1,13.4-3.7s4.9-7.3,4.9-12A15.4,15.4,0,0,0,87.7,48.1ZM79,65.2a13.2,13.2,0,0,1-4.6.6h-4v-11H74a13.2,13.2,0,0,1,4.9.8,4.6,4.6,0,0,1,2.9,4.7C81.8,63,80.6,64.5,79,65.2Z" fill="#fff"/><path d="M64.4,127.4C28.9,127.4,0,98.9,0,63.7S28.9,0,64.4,0s64.4,28.6,64.4,63.7S99.9,127.4,64.4,127.4Zm0-118.8C33.7,8.6,8.7,33.3,8.7,63.7s25,55.1,55.7,55.1,55.7-24.7,55.7-55.1S95.1,8.6,64.4,8.6Z" fill="#fff"/></svg>